<svg xmlns="http://www.w3.org/2000/svg" xml:space="preserve" aria-label="Unity Logo" class="logo__svg" viewBox="0 0 286.1 96.6"><path fill="#fff" d="M108.1 52.6V25.2h11.5V53c0 4.5 2.3 7.6 8 7.6 5.3 0 7.9-3.2 7.9-7.8V25.2H147v27.4c0 10.7-6.4 17.2-19.4 17.2-13.1 0-19.5-6.3-19.5-17.2zm44.2-16.9h10.2v4.5h.2c2.5-3.6 5.7-5.5 10.3-5.5 7.3 0 11.6 5.2 11.6 12.6V69H174V49.5c0-3.5-1.8-5.9-5.2-5.9-3.5 0-5.8 2.9-5.8 7V69h-10.6V35.7zm37.6-13.2h10.6v8.6h-10.6v-8.6zm0 13.2h10.6V69h-10.6V35.7zm19 24.5V44.3h-4.4v-8.6h4.4V25.2h10.3v10.5h6v8.6h-6v13.6c0 2.6 1.4 3.2 3.7 3.2.9 0 1.9-.1 2.3-.1v7.7c-.9.3-2.9.5-5.8.5-6.1.2-10.5-1.8-10.5-9zm22.9 11.5h3.6c3.1 0 4.4-1.2 4.4-3.5 0-1.4-.6-3.4-2-6.9L228 35.7h11.2l4.5 14.2c1 3.2 2.1 7.7 2.1 7.7h.1s.9-4.4 1.9-7.7l4.4-14.2h10.6l-11.5 33.7c-2.7 7.8-5.8 10.5-12.5 10.5h-6.9v-8.2z"/><path fill="#ccc" d="M85.6 67.6V22.5L46.5 0v17.3l15.3 8.8c.6.3.6 1.2 0 1.5L43.6 38.1c-.5.3-1.2.3-1.7 0L23.7 27.6c-.6-.3-.6-1.2 0-1.5L39 17.3V0L0 22.5v45.1-.2.2L15 59V41.3c0-.6.7-1.1 1.3-.7l18.2 10.5c.5.3.9.9.9 1.5v21c0 .6-.7 1.1-1.3.7l-15.3-8.8-15 8.6 39 22.5 39-22.5-15-8.6-15.3 8.8c-.5.3-1.3-.1-1.3-.7v-21c0-.6.3-1.2.9-1.5l18.2-10.5c.5-.3 1.3.1 1.3.7V59l15 8.6z"/><path fill="#a6a6a6" d="m42.8 96.6 39-22.5-15-8.6-15.3 8.8c-.5.3-1.3-.1-1.3-.7v-21c0-.6.3-1.2.9-1.5l18.2-10.5c.5-.3 1.3.1 1.3.7V59l15 8.6V22.5L42.8 47.2v49.4z"/><path fill="#fff" d="M46.5 0v17.3l15.3 8.8c.6.3.6 1.2 0 1.5L43.6 38.1c-.5.3-1.2.3-1.7 0L23.7 27.6c-.6-.3-.6-1.2 0-1.5L39 17.3V0L0 22.5l42.8 24.7 42.8-24.7L46.5 0z"/><path fill="#ccc" d="m34 74.3-15.3-8.8-15 8.6 39 22.5V47.2L0 22.5v45.1-.2.2L15 59V41.3c0-.6.7-1.1 1.3-.7l18.2 10.5c.5.3.9.9.9 1.5v21c-.1.6-.8 1-1.4.7z"/><path fill="#fff" d="M285.5 40.9c-.4-1-1-1.9-1.8-2.7-.8-.8-1.7-1.4-2.7-1.8-1-.4-2.1-.7-3.3-.7s-2.3.2-3.3.7c-1 .4-1.9 1-2.7 1.8s-1.4 1.7-1.8 2.7c-.4 1-.7 2.1-.7 3.3 0 1.2.2 2.3.7 3.3.4 1 1 1.9 1.8 2.7s1.7 1.4 2.7 1.8c1 .4 2.1.7 3.3.7s2.3-.2 3.3-.7c1-.4 1.9-1 2.7-1.8.8-.8 1.4-1.7 1.8-2.7.4-1 .7-2.1.7-3.3-.1-1.2-.3-2.3-.7-3.3zm-2.3 6.5c-.6 1-1.4 1.8-2.3 2.3-1 .6-2.1.9-3.2.9-1.2 0-2.3-.3-3.2-.9-1-.6-1.8-1.4-2.3-2.3-.6-1-.9-2.1-.9-3.2 0-1.2.3-2.3.9-3.2.6-1 1.4-1.8 2.3-2.3 1-.6 2.1-.9 3.2-.9 1.2 0 2.3.3 3.2.9 1 .6 1.8 1.4 2.3 2.3.6 1 .9 2.1.9 3.2 0 1.2-.3 2.3-.9 3.2z"/><path fill="#fff" d="M280.6 44.1c.3-.4.4-.9.4-1.5s-.1-1-.4-1.4c-.3-.4-.6-.6-1-.8-.4-.2-.7-.3-1-.3h-4V48h1.7v-2.7h1.7l1.4 2.7h1.9l-1.6-3c.4-.2.7-.5.9-.9zm-4.2-2.6h1.6c.2 0 .4.1.7.3.3.2.4.5.4 1s-.1.8-.4 1c-.3.2-.5.3-.8.3h-1.6v-2.6z"/></svg>